# xmcd
# 
# Track frame offsets:
#     150
#     17898
#     32829
#     50058
#     66016
#     80887
#     99956
#     120532
#     137099
#     153149
#     179918
# 
# Disc length: 2715
# 
# Revision: 0
# Processed by: cddbd v1.5.2PL0 Copyright (c) Steve Scherf et al.
# Submitted via: fre:ac v1.0.27
# 
DISCID=960a990b
DTITLE=Mike Henderson - Only Time Will Tell
DYEAR=2001
DGENRE=Blues
TTITLE0=I Feel So Good Tonight
TTITLE1=Down Home Loving
TTITLE2=Lord Have Mercy
TTITLE3=Love Is Like Barbeque Sauce
TTITLE4=Try Me
TTITLE5=Fool That I Am
TTITLE6=Only Time Will Tell
TTITLE7=I'm Sticking With You
TTITLE8=Throw The Dice On The Table
TTITLE9=God Helps Them Who Helps Themselves
TTITLE10=Blues Club Row
EXTD=
EXTT0=
EXTT1=
EXTT2=
EXTT3=
EXTT4=
EXTT5=
EXTT6=
EXTT7=
EXTT8=
EXTT9=
EXTT10=
PLAYORDER=
